<mxfile host="app.diagrams.net" modified="2021-10-24T18:10:19.336Z" agent="5.0 (Windows NT 10.0; Win64; x64) AppleWebKit/537.36 (KHTML, like Gecko) Chrome/95.0.4638.54 Safari/537.36" etag="CfjzHKJl1DQ693-pHG0H" version="15.5.0" type="github">
  <diagram id="xcymKq8cq6xPSf8r0e3Y" name="Page-1">
    <mxGraphModel dx="1483" dy="786" grid="1" gridSize="10" guides="1" tooltips="1" connect="1" arrows="1" fold="1" page="1" pageScale="1" pageWidth="850" pageHeight="1100" math="0" shadow="0">
      <root>
        <mxCell id="0" />
        <mxCell id="1" parent="0" />
        <mxCell id="flPBT_Lpnx6nHrTyqa9g-1" value="&lt;b&gt;Question&lt;/b&gt;" style="rounded=0;whiteSpace=wrap;html=1;" parent="1" vertex="1">
          <mxGeometry x="307.5" y="330" width="132.5" height="30" as="geometry" />
        </mxCell>
        <mxCell id="YoGvq7466bBxluoO1XCx-11" style="edgeStyle=orthogonalEdgeStyle;rounded=0;orthogonalLoop=1;jettySize=auto;html=1;exitX=0.25;exitY=1;exitDx=0;exitDy=0;entryX=0.5;entryY=0;entryDx=0;entryDy=0;endArrow=none;endFill=0;" edge="1" parent="1" source="YoGvq7466bBxluoO1XCx-49" target="flPBT_Lpnx6nHrTyqa9g-1">
          <mxGeometry relative="1" as="geometry">
            <Array as="points">
              <mxPoint x="410" y="250" />
              <mxPoint x="398" y="250" />
              <mxPoint x="398" y="290" />
              <mxPoint x="390" y="290" />
              <mxPoint x="390" y="330" />
            </Array>
          </mxGeometry>
        </mxCell>
        <mxCell id="flPBT_Lpnx6nHrTyqa9g-2" value="&lt;b&gt;User&lt;/b&gt;" style="rounded=0;whiteSpace=wrap;html=1;" parent="1" vertex="1">
          <mxGeometry x="337.5" y="90" width="290" height="30" as="geometry" />
        </mxCell>
        <mxCell id="YoGvq7466bBxluoO1XCx-3" style="edgeStyle=orthogonalEdgeStyle;rounded=0;orthogonalLoop=1;jettySize=auto;html=1;exitX=0.991;exitY=0.151;exitDx=0;exitDy=0;entryX=0;entryY=0.25;entryDx=0;entryDy=0;endArrow=none;endFill=0;exitPerimeter=0;" edge="1" parent="1" source="YoGvq7466bBxluoO1XCx-35" target="YoGvq7466bBxluoO1XCx-47">
          <mxGeometry relative="1" as="geometry" />
        </mxCell>
        <mxCell id="YoGvq7466bBxluoO1XCx-4" style="edgeStyle=orthogonalEdgeStyle;rounded=0;orthogonalLoop=1;jettySize=auto;html=1;exitX=0.5;exitY=1;exitDx=0;exitDy=0;entryX=0.5;entryY=0;entryDx=0;entryDy=0;endArrow=none;endFill=0;" edge="1" parent="1" source="YoGvq7466bBxluoO1XCx-35" target="flPBT_Lpnx6nHrTyqa9g-4">
          <mxGeometry relative="1" as="geometry">
            <Array as="points">
              <mxPoint x="198" y="477" />
              <mxPoint x="220" y="477" />
              <mxPoint x="220" y="550" />
            </Array>
          </mxGeometry>
        </mxCell>
        <mxCell id="YoGvq7466bBxluoO1XCx-7" style="edgeStyle=orthogonalEdgeStyle;rounded=0;orthogonalLoop=1;jettySize=auto;html=1;exitX=0.5;exitY=0;exitDx=0;exitDy=0;entryX=0;entryY=0.5;entryDx=0;entryDy=0;endArrow=none;endFill=0;" edge="1" parent="1" source="flPBT_Lpnx6nHrTyqa9g-3" target="flPBT_Lpnx6nHrTyqa9g-2">
          <mxGeometry relative="1" as="geometry" />
        </mxCell>
        <mxCell id="flPBT_Lpnx6nHrTyqa9g-3" value="&lt;b&gt;Answer&lt;/b&gt;" style="rounded=0;whiteSpace=wrap;html=1;" parent="1" vertex="1">
          <mxGeometry x="100" y="325" width="137.5" height="40" as="geometry" />
        </mxCell>
        <mxCell id="YoGvq7466bBxluoO1XCx-21" style="edgeStyle=orthogonalEdgeStyle;rounded=0;orthogonalLoop=1;jettySize=auto;html=1;exitX=1;exitY=0.5;exitDx=0;exitDy=0;entryX=0.5;entryY=1;entryDx=0;entryDy=0;endArrow=none;endFill=0;" edge="1" parent="1" source="flPBT_Lpnx6nHrTyqa9g-4" target="YoGvq7466bBxluoO1XCx-49">
          <mxGeometry relative="1" as="geometry">
            <Array as="points">
              <mxPoint x="477.5" y="565" />
              <mxPoint x="477.5" y="250" />
              <mxPoint x="482.5" y="250" />
            </Array>
          </mxGeometry>
        </mxCell>
        <mxCell id="flPBT_Lpnx6nHrTyqa9g-4" value="&lt;b&gt;Comment&lt;/b&gt;" style="rounded=0;whiteSpace=wrap;html=1;" parent="1" vertex="1">
          <mxGeometry x="100" y="550" width="140" height="30" as="geometry" />
        </mxCell>
        <mxCell id="YoGvq7466bBxluoO1XCx-6" style="edgeStyle=orthogonalEdgeStyle;rounded=0;orthogonalLoop=1;jettySize=auto;html=1;entryX=1;entryY=0.5;entryDx=0;entryDy=0;endArrow=none;endFill=0;" edge="1" parent="1" source="flPBT_Lpnx6nHrTyqa9g-6" target="flPBT_Lpnx6nHrTyqa9g-2">
          <mxGeometry relative="1" as="geometry">
            <Array as="points">
              <mxPoint x="677.5" y="235" />
              <mxPoint x="657.5" y="235" />
              <mxPoint x="657.5" y="105" />
            </Array>
          </mxGeometry>
        </mxCell>
        <mxCell id="flPBT_Lpnx6nHrTyqa9g-6" value="&lt;b&gt;Credential&lt;/b&gt;" style="rounded=0;whiteSpace=wrap;html=1;" parent="1" vertex="1">
          <mxGeometry x="667.5" y="320" width="122.5" height="40" as="geometry" />
        </mxCell>
        <mxCell id="YoGvq7466bBxluoO1XCx-5" style="edgeStyle=orthogonalEdgeStyle;rounded=0;orthogonalLoop=1;jettySize=auto;html=1;exitX=0.5;exitY=0;exitDx=0;exitDy=0;endArrow=diamond;endFill=1;entryX=0.75;entryY=1;entryDx=0;entryDy=0;" edge="1" parent="1" source="flPBT_Lpnx6nHrTyqa9g-7" target="YoGvq7466bBxluoO1XCx-49">
          <mxGeometry relative="1" as="geometry">
            <mxPoint x="447.5" y="270" as="targetPoint" />
          </mxGeometry>
        </mxCell>
        <mxCell id="flPBT_Lpnx6nHrTyqa9g-7" value="&lt;b&gt;UserSettings&lt;/b&gt;" style="rounded=0;whiteSpace=wrap;html=1;" parent="1" vertex="1">
          <mxGeometry x="520" y="380" width="130" height="30" as="geometry" />
        </mxCell>
        <mxCell id="YoGvq7466bBxluoO1XCx-8" value="*" style="text;html=1;strokeColor=none;fillColor=none;align=center;verticalAlign=middle;whiteSpace=wrap;rounded=0;" vertex="1" parent="1">
          <mxGeometry x="167.5" y="310" width="40" height="20" as="geometry" />
        </mxCell>
        <mxCell id="YoGvq7466bBxluoO1XCx-9" value="*" style="text;html=1;strokeColor=none;fillColor=none;align=center;verticalAlign=middle;whiteSpace=wrap;rounded=0;" vertex="1" parent="1">
          <mxGeometry x="187.5" y="530" width="40" height="20" as="geometry" />
        </mxCell>
        <mxCell id="YoGvq7466bBxluoO1XCx-10" value="*" style="text;html=1;strokeColor=none;fillColor=none;align=center;verticalAlign=middle;whiteSpace=wrap;rounded=0;" vertex="1" parent="1">
          <mxGeometry x="227.5" y="350" width="40" height="20" as="geometry" />
        </mxCell>
        <mxCell id="YoGvq7466bBxluoO1XCx-12" value="*" style="text;html=1;strokeColor=none;fillColor=none;align=center;verticalAlign=middle;whiteSpace=wrap;rounded=0;" vertex="1" parent="1">
          <mxGeometry x="367.5" y="315" width="20" height="10" as="geometry" />
        </mxCell>
        <mxCell id="YoGvq7466bBxluoO1XCx-14" value="1" style="text;html=1;strokeColor=none;fillColor=none;align=center;verticalAlign=middle;whiteSpace=wrap;rounded=0;" vertex="1" parent="1">
          <mxGeometry x="277.5" y="350" width="40" height="20" as="geometry" />
        </mxCell>
        <mxCell id="YoGvq7466bBxluoO1XCx-15" value="1" style="text;html=1;strokeColor=none;fillColor=none;align=center;verticalAlign=middle;whiteSpace=wrap;rounded=0;" vertex="1" parent="1">
          <mxGeometry x="577.5" y="360" width="40" height="20" as="geometry" />
        </mxCell>
        <mxCell id="YoGvq7466bBxluoO1XCx-16" value="1" style="text;html=1;strokeColor=none;fillColor=none;align=center;verticalAlign=middle;whiteSpace=wrap;rounded=0;" vertex="1" parent="1">
          <mxGeometry x="307.5" y="240" width="40" height="20" as="geometry" />
        </mxCell>
        <mxCell id="YoGvq7466bBxluoO1XCx-17" value="1" style="text;html=1;strokeColor=none;fillColor=none;align=center;verticalAlign=middle;whiteSpace=wrap;rounded=0;" vertex="1" parent="1">
          <mxGeometry x="387.5" y="250" width="40" height="20" as="geometry" />
        </mxCell>
        <mxCell id="YoGvq7466bBxluoO1XCx-18" value="1" style="text;html=1;strokeColor=none;fillColor=none;align=center;verticalAlign=middle;whiteSpace=wrap;rounded=0;" vertex="1" parent="1">
          <mxGeometry x="467.5" y="245" width="50" height="20" as="geometry" />
        </mxCell>
        <mxCell id="YoGvq7466bBxluoO1XCx-19" value="1" style="text;html=1;strokeColor=none;fillColor=none;align=center;verticalAlign=middle;whiteSpace=wrap;rounded=0;" vertex="1" parent="1">
          <mxGeometry x="627.5" y="215" width="40" height="20" as="geometry" />
        </mxCell>
        <mxCell id="YoGvq7466bBxluoO1XCx-20" value="*" style="text;html=1;strokeColor=none;fillColor=none;align=center;verticalAlign=middle;whiteSpace=wrap;rounded=0;" vertex="1" parent="1">
          <mxGeometry x="667.5" y="305" width="40" height="20" as="geometry" />
        </mxCell>
        <mxCell id="YoGvq7466bBxluoO1XCx-23" value="1" style="text;html=1;strokeColor=none;fillColor=none;align=center;verticalAlign=middle;whiteSpace=wrap;rounded=0;" vertex="1" parent="1">
          <mxGeometry x="557.5" y="250" width="40" height="20" as="geometry" />
        </mxCell>
        <mxCell id="YoGvq7466bBxluoO1XCx-24" value="*" style="text;html=1;strokeColor=none;fillColor=none;align=center;verticalAlign=middle;whiteSpace=wrap;rounded=0;" vertex="1" parent="1">
          <mxGeometry x="227.5" y="550" width="40" height="20" as="geometry" />
        </mxCell>
        <mxCell id="YoGvq7466bBxluoO1XCx-25" value="&lt;i&gt;CreatedBy&lt;/i&gt;" style="text;html=1;strokeColor=none;fillColor=none;align=center;verticalAlign=middle;whiteSpace=wrap;rounded=0;" vertex="1" parent="1">
          <mxGeometry x="220" y="70" width="40" height="20" as="geometry" />
        </mxCell>
        <mxCell id="YoGvq7466bBxluoO1XCx-26" value="&lt;font style=&quot;font-size: 10px&quot;&gt;questioner&lt;/font&gt;" style="text;html=1;strokeColor=none;fillColor=none;align=center;verticalAlign=middle;whiteSpace=wrap;rounded=0;" vertex="1" parent="1">
          <mxGeometry x="347.5" y="250" width="40" height="10" as="geometry" />
        </mxCell>
        <mxCell id="YoGvq7466bBxluoO1XCx-28" value="&lt;font style=&quot;font-size: 10px&quot;&gt;answerer&lt;/font&gt;" style="text;html=1;strokeColor=none;fillColor=none;align=center;verticalAlign=middle;whiteSpace=wrap;rounded=0;" vertex="1" parent="1">
          <mxGeometry x="287.5" y="220" width="40" height="10" as="geometry" />
        </mxCell>
        <mxCell id="YoGvq7466bBxluoO1XCx-59" style="edgeStyle=orthogonalEdgeStyle;rounded=0;orthogonalLoop=1;jettySize=auto;html=1;exitX=0.5;exitY=1;exitDx=0;exitDy=0;fontSize=11;endArrow=none;endFill=0;" edge="1" parent="1" source="YoGvq7466bBxluoO1XCx-33">
          <mxGeometry relative="1" as="geometry">
            <mxPoint x="457.7068965517242" y="260" as="targetPoint" />
          </mxGeometry>
        </mxCell>
        <mxCell id="YoGvq7466bBxluoO1XCx-33" value="&lt;font style=&quot;font-size: 10px&quot;&gt;commenter&lt;/font&gt;" style="text;html=1;strokeColor=none;fillColor=none;align=center;verticalAlign=middle;whiteSpace=wrap;rounded=0;" vertex="1" parent="1">
          <mxGeometry x="437.5" y="240" width="40" height="20" as="geometry" />
        </mxCell>
        <mxCell id="YoGvq7466bBxluoO1XCx-35" value="+ text: string&lt;br&gt;+ created_at: date" style="rounded=0;whiteSpace=wrap;html=1;align=left;" vertex="1" parent="1">
          <mxGeometry x="100" y="365" width="137.5" height="40" as="geometry" />
        </mxCell>
        <mxCell id="YoGvq7466bBxluoO1XCx-42" value="+ text: string&lt;br&gt;+ created_at: date" style="rounded=0;whiteSpace=wrap;html=1;align=left;" vertex="1" parent="1">
          <mxGeometry x="100" y="580" width="137.5" height="40" as="geometry" />
        </mxCell>
        <mxCell id="YoGvq7466bBxluoO1XCx-44" value="+ name : string&lt;br&gt;+ dateOfBirth : date&lt;br&gt;+ email : string" style="rounded=0;whiteSpace=wrap;html=1;align=left;" vertex="1" parent="1">
          <mxGeometry x="337.5" y="120" width="290" height="70" as="geometry" />
        </mxCell>
        <mxCell id="YoGvq7466bBxluoO1XCx-45" value="+loginTime : date&lt;br&gt;+deviceName : string" style="rounded=0;whiteSpace=wrap;html=1;align=left;" vertex="1" parent="1">
          <mxGeometry x="667.5" y="360" width="122.5" height="40" as="geometry" />
        </mxCell>
        <mxCell id="YoGvq7466bBxluoO1XCx-46" value="+isDarkTheme: bool&lt;br&gt;+notificationsFlag: bool" style="rounded=0;whiteSpace=wrap;html=1;align=left;" vertex="1" parent="1">
          <mxGeometry x="520" y="410" width="130" height="40" as="geometry" />
        </mxCell>
        <mxCell id="YoGvq7466bBxluoO1XCx-47" value="+ text: string&lt;br&gt;+ created_at: date" style="rounded=0;whiteSpace=wrap;html=1;align=left;" vertex="1" parent="1">
          <mxGeometry x="307.5" y="360" width="132.5" height="40" as="geometry" />
        </mxCell>
        <mxCell id="YoGvq7466bBxluoO1XCx-49" value="+ addQuestion(text: string) : Question&lt;br&gt;+ addAnswer(text: string) : Answer&lt;br&gt;+ addComment(text: string) : Comment" style="rounded=0;whiteSpace=wrap;html=1;align=left;" vertex="1" parent="1">
          <mxGeometry x="337.5" y="190" width="290" height="50" as="geometry" />
        </mxCell>
        <mxCell id="YoGvq7466bBxluoO1XCx-50" value="+ edit(text: string): void" style="rounded=0;whiteSpace=wrap;html=1;align=left;" vertex="1" parent="1">
          <mxGeometry x="100" y="405" width="137.5" height="40" as="geometry" />
        </mxCell>
        <mxCell id="YoGvq7466bBxluoO1XCx-52" value="1" style="text;html=1;strokeColor=none;fillColor=none;align=center;verticalAlign=middle;whiteSpace=wrap;rounded=0;" vertex="1" parent="1">
          <mxGeometry x="167.5" y="450" width="40" height="20" as="geometry" />
        </mxCell>
        <mxCell id="YoGvq7466bBxluoO1XCx-54" value="+ edit(text: string): void" style="rounded=0;whiteSpace=wrap;html=1;align=left;" vertex="1" parent="1">
          <mxGeometry x="100" y="620" width="137.5" height="40" as="geometry" />
        </mxCell>
        <mxCell id="YoGvq7466bBxluoO1XCx-56" value="+ edit(text: string): void" style="rounded=0;whiteSpace=wrap;html=1;align=left;" vertex="1" parent="1">
          <mxGeometry x="307.5" y="400" width="132.5" height="40" as="geometry" />
        </mxCell>
        <mxCell id="YoGvq7466bBxluoO1XCx-58" value="+remove():void" style="rounded=0;whiteSpace=wrap;html=1;align=left;" vertex="1" parent="1">
          <mxGeometry x="667.5" y="400" width="122.5" height="40" as="geometry" />
        </mxCell>
      </root>
    </mxGraphModel>
  </diagram>
</mxfile>
